<svg width="64" height="64" viewBox="0 0 64 64" fill="none" xmlns="http://www.w3.org/2000/svg">
  <defs>
    <!-- Background Gradient -->
    <linearGradient id="bgGradient" x1="0%" y1="0%" x2="100%" y2="100%">
      <stop offset="0%" style="stop-color:#3b82f6;stop-opacity:1" />
      <stop offset="50%" style="stop-color:#2563eb;stop-opacity:1" />
      <stop offset="100%" style="stop-color:#1e40af;stop-opacity:1" />
    </linearGradient>
    
    <!-- Shield Gradient -->
    <linearGradient id="shieldGradient" x1="0%" y1="0%" x2="100%" y2="100%">
      <stop offset="0%" style="stop-color:#ffffff;stop-opacity:1" />
      <stop offset="100%" style="stop-color:#f1f5f9;stop-opacity:1" />
    </linearGradient>
    
    <!-- Inner Shield Gradient -->
    <linearGradient id="innerShield" x1="0%" y1="0%" x2="100%" y2="100%">
      <stop offset="0%" style="stop-color:#1e40af;stop-opacity:1" />
      <stop offset="100%" style="stop-color:#3b82f6;stop-opacity:1" />
    </linearGradient>
    
    <!-- Lock Gradient -->
    <linearGradient id="lockGradient" x1="0%" y1="0%" x2="100%" y2="100%">
      <stop offset="0%" style="stop-color:#10b981;stop-opacity:1" />
      <stop offset="100%" style="stop-color:#059669;stop-opacity:1" />
    </linearGradient>
    
    <!-- Glow Filter -->
    <filter id="glow" x="-50%" y="-50%" width="200%" height="200%">
      <feGaussianBlur stdDeviation="2" result="coloredBlur"/>
      <feMerge>
        <feMergeNode in="coloredBlur"/>
        <feMergeNode in="SourceGraphic"/>
      </feMerge>
    </filter>
    
    <!-- Inner Shadow -->
    <filter id="innerShadow">
      <feOffset dx="0" dy="1"/>
      <feGaussianBlur stdDeviation="1" result="offset-blur"/>
      <feComponentTransfer>
        <feFuncA type="linear" slope="0.5"/>
      </feComponentTransfer>
      <feMerge> 
        <feMergeNode in="SourceGraphic"/>
        <feMergeNode in="offset-blur"/>
      </feMerge>
    </filter>
  </defs>
  
  <!-- Background Circle with enhanced gradient -->
  <circle cx="32" cy="32" r="32" fill="url(#bgGradient)"/>
  
  <!-- Subtle outer ring -->
  <circle cx="32" cy="32" r="30" fill="none" stroke="rgba(255,255,255,0.1)" stroke-width="1"/>
  
  <!-- Enhanced Shield Shape -->
  <g filter="url(#glow)">
    <!-- Subtle shadow behind shield -->
    <path d="M32 17c8.5 0 16.5 3.2 19.5 8.5 3.2 5.3-1 14.5-7.2 21.8-5.2 6.2-10.8 9.2-10.8 9.2s-5.6-3-10.8-9.2c-6.2-7.3-10.4-16.5-7.2-21.8 3-5.3 11-8.5 19.5-8.5z" 
          fill="rgba(0,0,0,0.1)"/>
    
    <!-- Main Shield -->
    <path d="M32 16c8.5 0 16.5 3.2 19.5 8.5 3.2 5.3-1 14.5-7.2 21.8-5.2 6.2-10.8 9.2-10.8 9.2s-5.6-3-10.8-9.2c-6.2-7.3-10.4-16.5-7.2-21.8 3-5.3 11-8.5 19.5-8.5z" 
          fill="url(#shieldGradient)" 
          stroke="rgba(59,130,246,0.3)" 
          stroke-width="0.5"/>
    
    <!-- Shield highlight -->
    <path d="M32 18c7 0 13.5 2.5 16 6.8 2.5 4.3-0.8 11.8-5.8 17.7-4.2 5-8.7 7.5-8.7 7.5s-4.5-2.5-8.7-7.5c-5-5.9-8.3-13.4-5.8-17.7 2.5-4.3 9-6.8 16-6.8z" 
          fill="rgba(255,255,255,0.1)"/>
  </g>
  
  <!-- Enhanced Lock Symbol -->
  <g transform="translate(32,31)">
    <!-- Lock body with gradient -->
    <rect x="-6" y="-1" width="12" height="10" rx="2" 
          fill="url(#lockGradient)" 
          filter="url(#innerShadow)"/>
    
    <!-- Lock body highlight -->
    <rect x="-5" y="-0.5" width="10" height="1.5" rx="1" 
          fill="rgba(255,255,255,0.3)"/>
    
    <!-- Lock shackle with enhanced design -->
    <path d="M-3.5 -1 L-3.5 -4.5 C-3.5 -6.5 -1.9 -8.5 1.5 -8.5 C4.9 -8.5 6.5 -6.5 6.5 -4.5 L6.5 -1" 
          fill="none" 
          stroke="url(#lockGradient)" 
          stroke-width="2.2" 
          stroke-linecap="round"/>
    
    <!-- Inner shackle highlight -->
    <path d="M-2.5 -1 L-2.5 -4.2 C-2.5 -5.8 -1.2 -7.5 1.5 -7.5 C4.2 -7.5 5.5 -5.8 5.5 -4.2 L5.5 -1" 
          fill="none" 
          stroke="rgba(255,255,255,0.4)" 
          stroke-width="1" 
          stroke-linecap="round"/>
    
    <!-- Keyhole -->
    <circle cx="0" cy="3" r="1.8" fill="#ffffff"/>
    <rect x="-0.8" y="3.5" width="1.6" height="3" rx="0.8" fill="#ffffff"/>
    
    <!-- Keyhole inner shadow -->
    <circle cx="0" cy="3" r="1.8" fill="rgba(0,0,0,0.1)"/>
    <circle cx="0" cy="2.8" r="1.5" fill="#ffffff"/>
    <rect x="-0.6" y="3.2" width="1.2" height="2.5" rx="0.6" fill="#ffffff"/>
  </g>
  
  <!-- Security indicator dots -->
  <g opacity="0.8">
    <circle cx="20" cy="20" r="1.5" fill="url(#lockGradient)"/>
    <circle cx="44" cy="20" r="1.5" fill="url(#lockGradient)"/>
    <circle cx="20" cy="44" r="1.5" fill="url(#lockGradient)"/>
    <circle cx="44" cy="44" r="1.5" fill="url(#lockGradient)"/>
  </g>
  
  <!-- Subtle connection lines -->
  <g stroke="rgba(16,185,129,0.3)" stroke-width="1" opacity="0.6">
    <line x1="21" y1="21" x2="28" y2="28"/>
    <line x1="43" y1="21" x2="36" y2="28"/>
    <line x1="21" y1="43" x2="28" y2="36"/>
    <line x1="43" y1="43" x2="36" y2="36"/>
  </g>
  
  <!-- Inner glow effect -->
  <circle cx="32" cy="32" r="25" fill="none" stroke="rgba(255,255,255,0.05)" stroke-width="1"/>
  <circle cx="32" cy="32" r="20" fill="none" stroke="rgba(255,255,255,0.03)" stroke-width="1"/>
</svg>