<svg width="400" height="270" viewBox="0 0 400 270" fill="none" xmlns="http://www.w3.org/2000/svg">
  <defs>
    <!-- Gradients -->
    <linearGradient id="cloudGradient" x1="0%" y1="0%" x2="100%" y2="100%">
      <stop offset="0%" style="stop-color:#ffffff;stop-opacity:1" />
      <stop offset="100%" style="stop-color:#f8fafc;stop-opacity:0.95" />
    </linearGradient>
    
    <linearGradient id="shieldGradient" x1="0%" y1="0%" x2="100%" y2="100%">
      <stop offset="0%" style="stop-color:#3b82f6;stop-opacity:1" />
      <stop offset="100%" style="stop-color:#1e40af;stop-opacity:1" />
    </linearGradient>
    
    <linearGradient id="accentGradient" x1="0%" y1="0%" x2="100%" y2="100%">
      <stop offset="0%" style="stop-color:#10b981;stop-opacity:1" />
      <stop offset="100%" style="stop-color:#047857;stop-opacity:1" />
    </linearGradient>
    
    <radialGradient id="glowEffect" cx="50%" cy="50%" r="50%">
      <stop offset="0%" style="stop-color:#ffffff;stop-opacity:0.8" />
      <stop offset="100%" style="stop-color:#ffffff;stop-opacity:0" />
    </radialGradient>
    
    <!-- Filters -->
    <filter id="dropShadow" x="-50%" y="-50%" width="200%" height="200%">
      <feGaussianBlur in="SourceAlpha" stdDeviation="3"/>
      <feOffset dx="2" dy="4" result="offset"/>
      <feComponentTransfer>
        <feFuncA type="linear" slope="0.3"/>
      </feComponentTransfer>
      <feMerge> 
        <feMergeNode/>
        <feMergeNode in="SourceGraphic"/> 
      </feMerge>
    </filter>
    
    <filter id="glow" x="-50%" y="-50%" width="200%" height="200%">
      <feGaussianBlur stdDeviation="4" result="coloredBlur"/>
      <feMerge>
        <feMergeNode in="coloredBlur"/>
        <feMergeNode in="SourceGraphic"/>
      </feMerge>
    </filter>
    
    <!-- Animation -->
    <animateTransform id="float" attributeName="transform" type="translate" 
                      values="0,0; 0,-3; 0,0" dur="3s" repeatCount="indefinite"/>
  </defs>
  
  <!-- Background floating elements -->
  <g opacity="0.6">
    <circle cx="50" cy="50" r="2" fill="#3b82f6" opacity="0.4">
      <animate attributeName="opacity" values="0.4;0.8;0.4" dur="2s" repeatCount="indefinite"/>
    </circle>
    <circle cx="350" cy="80" r="1.5" fill="#10b981" opacity="0.5">
      <animate attributeName="opacity" values="0.5;0.9;0.5" dur="2.5s" repeatCount="indefinite"/>
    </circle>
    <circle cx="80" cy="200" r="2.5" fill="#f59e0b" opacity="0.3">
      <animate attributeName="opacity" values="0.3;0.7;0.3" dur="3s" repeatCount="indefinite"/>
    </circle>
    <circle cx="320" cy="220" r="2" fill="#8b5cf6" opacity="0.4">
      <animate attributeName="opacity" values="0.4;0.8;0.4" dur="2.2s" repeatCount="indefinite"/>
    </circle>
  </g>
  
  <!-- Cloud base shadows with better blending -->
  <ellipse cx="195" cy="220" rx="160" ry="38" fill="#2563EB" fill-opacity="0.08"/>
  <ellipse cx="100" cy="155" rx="58" ry="26" fill="url(#accentGradient)" fill-opacity="0.12"/>
  <ellipse cx="275" cy="195" rx="93" ry="30" fill="#FBBF24" fill-opacity="0.08"/>
  
  <!-- Main cloud with enhanced design -->
  <g filter="url(#dropShadow)">
    <ellipse cx="210" cy="115" rx="98" ry="65" fill="url(#cloudGradient)" stroke="rgba(59,130,246,0.1)" stroke-width="1"/>
    
    <!-- Cloud texture overlays -->
    <ellipse cx="170" cy="105" rx="25" ry="15" fill="rgba(59,130,246,0.05)"/>
    <ellipse cx="240" cy="125" rx="30" ry="18" fill="rgba(16,185,129,0.05)"/>
    <ellipse cx="200" cy="140" rx="20" ry="12" fill="rgba(251,191,36,0.05)"/>
  </g>
  
  <!-- Secondary cloud elements -->
  <ellipse cx="130" cy="120" rx="40" ry="24" fill="url(#accentGradient)" fill-opacity="0.15" filter="url(#dropShadow)"/>
  <ellipse cx="260" cy="110" rx="50" ry="28" fill="#2563EB" fill-opacity="0.06"/>
  
  <!-- Enhanced Shield with animation -->
  <g filter="url(#glow)">
    <animateTransform attributeName="transform" type="translate" values="0,0; 0,-2; 0,0" dur="4s" repeatCount="indefinite"/>
    
    <!-- Outer shield glow -->
    <path d="M210 83c22 0 44 8 56 26 13 18 11 42-5 63-11 17-29 32-44 40-15-8-33-23-44-40-16-21-18-45-5-63 12-18 34-26 56-26z" 
          fill="rgba(59,130,246,0.2)" opacity="0.8"/>
    
    <!-- Main shield -->
    <path d="M210 85c21 0 42 8 54 25 12 17 10 40-5 60-10 16-28 31-42 39-14-8-32-23-42-39-15-20-17-43-5-60 12-17 33-25 54-25z" 
          fill="url(#shieldGradient)"/>
    
    <!-- Inner shield highlight -->
    <path d="M210 90c18 0 36 7 46 21 10 14 8 34-4 51-9 14-24 26-36 33-12-7-27-19-36-33-12-17-14-37-4-51 10-14 28-21 46-21z" 
          fill="rgba(255,255,255,0.1)"/>
    
    <!-- White inner area -->
    <path d="M210 97c13 0 25 5 31 15 6 10 6 24-3 37-7 11-18 20-28 25-10-5-21-14-28-25-9-13-9-27-3-37 6-10 18-15 31-15z" 
          fill="#ffffff"/>
    
    <!-- Lock mechanism -->
    <g transform="translate(210,120)">
      <!-- Lock body -->
      <rect x="-8" y="-2" width="16" height="12" rx="2" fill="url(#shieldGradient)"/>
      <!-- Lock shackle -->
      <path d="M-5 -2 L-5 -6 C-5 -9 -2 -12 2 -12 C6 -12 9 -9 9 -6 L9 -2" 
            fill="none" stroke="url(#shieldGradient)" stroke-width="2.5" stroke-linecap="round"/>
      <!-- Keyhole -->
      <circle cx="0" cy="3" r="2" fill="#ffffff"/>
      <rect x="-1" y="3" width="2" height="4" fill="#ffffff"/>
    </g>
  </g>
  
  <!-- Network connection indicators -->
  <g stroke="#10b981" stroke-width="2" opacity="0.7">
    <!-- Connection nodes -->
    <circle cx="150" cy="80" r="3" fill="#10b981">
      <animate attributeName="r" values="3;5;3" dur="2s" repeatCount="indefinite"/>
    </circle>
    <circle cx="270" cy="75" r="3" fill="#10b981">
      <animate attributeName="r" values="3;5;3" dur="2.5s" repeatCount="indefinite"/>
    </circle>
    <circle cx="320" cy="140" r="3" fill="#10b981">
      <animate attributeName="r" values="3;5;3" dur="3s" repeatCount="indefinite"/>
    </circle>
    
    <!-- Animated connection lines -->
    <line x1="153" y1="82" x2="180" y2="95" stroke-dasharray="3,3" opacity="0.6">
      <animate attributeName="stroke-dashoffset" values="0;6" dur="1s" repeatCount="indefinite"/>
    </line>
    <line x1="240" y1="95" x2="267" y2="78" stroke-dasharray="3,3" opacity="0.6">
      <animate attributeName="stroke-dashoffset" values="0;6" dur="1.2s" repeatCount="indefinite"/>
    </line>
    <line x1="250" y1="125" x2="317" y2="137" stroke-dasharray="3,3" opacity="0.6">
      <animate attributeName="stroke-dashoffset" values="0;6" dur="1.5s" repeatCount="indefinite"/>
    </line>
  </g>
  
  <!-- Enhanced decorative elements -->
  <g opacity="0.8">
    <!-- Floating geometric shapes -->
    <rect x="65" y="40" width="40" height="12" rx="6" fill="url(#accentGradient)" fill-opacity="0.3" filter="url(#dropShadow)">
      <animateTransform attributeName="transform" type="translate" values="0,0; 3,0; 0,0" dur="3s" repeatCount="indefinite"/>
    </rect>
    
    <circle cx="285" cy="57" r="15" fill="#FBBF24" fill-opacity="0.25" filter="url(#dropShadow)">
      <animate attributeName="r" values="15;18;15" dur="2.5s" repeatCount="indefinite"/>
    </circle>
    
    <!-- Speed/performance indicators -->
    <g transform="translate(320,200)" opacity="0.6">
      <rect x="0" y="10" width="4" height="6" rx="2" fill="#10b981">
        <animate attributeName="height" values="6;12;6" dur="1s" repeatCount="indefinite"/>
        <animate attributeName="y" values="10;4;10" dur="1s" repeatCount="indefinite"/>
      </rect>
      <rect x="6" y="8" width="4" height="8" rx="2" fill="#10b981">
        <animate attributeName="height" values="8;14;8" dur="1.2s" repeatCount="indefinite"/>
        <animate attributeName="y" values="8;2;8" dur="1.2s" repeatCount="indefinite"/>
      </rect>
      <rect x="12" y="6" width="4" height="10" rx="2" fill="#10b981">
        <animate attributeName="height" values="10;16;10" dur="1.4s" repeatCount="indefinite"/>
        <animate attributeName="y" values="6;0;6" dur="1.4s" repeatCount="indefinite"/>
      </rect>
      <rect x="18" y="4" width="4" height="12" rx="2" fill="#10b981">
        <animate attributeName="height" values="12;18;12" dur="1.6s" repeatCount="indefinite"/>
        <animate attributeName="y" values="4;-2;4" dur="1.6s" repeatCount="indefinite"/>
      </rect>
    </g>
  </g>
  
  <!-- Subtle gradient accents -->
  <ellipse cx="360" cy="170" rx="25" ry="12" fill="url(#glowEffect)" opacity="0.3"/>
  <ellipse cx="40" cy="180" rx="20" ry="8" fill="url(#glowEffect)" opacity="0.25"/>
  
  <!-- Data flow particles -->
  <g opacity="0.4">
    <circle cx="100" cy="90" r="1" fill="#3b82f6">
      <animateMotion dur="4s" repeatCount="indefinite" path="M0,0 Q50,-20 100,0 T200,0"/>
      <animate attributeName="opacity" values="0;1;0" dur="4s" repeatCount="indefinite"/>
    </circle>
    <circle cx="300" cy="180" r="1" fill="#10b981">
      <animateMotion dur="5s" repeatCount="indefinite" path="M0,0 Q-30,20 -60,0 T-120,0"/>
      <animate attributeName="opacity" values="0;1;0" dur="5s" repeatCount="indefinite"/>
    </circle>
  </g>
</svg>