<svg width="340" height="260" viewBox="0 0 340 260" fill="none" xmlns="http://www.w3.org/2000/svg">
  <ellipse cx="170" cy="210" rx="130" ry="36" fill="#2563EB" fill-opacity="0.11"/>
  <ellipse cx="100" cy="155" rx="62" ry="35" fill="#14B8A6" fill-opacity="0.12"/>
  <ellipse cx="225" cy="180" rx="80" ry="30" fill="#FBBF24" fill-opacity="0.07"/>
  <g>
    <ellipse cx="165" cy="108" rx="90" ry="65" fill="#fff"/>
    <ellipse cx="125" cy="120" rx="36" ry="26" fill="#14B8A6" fill-opacity="0.22"/>
    <ellipse cx="205" cy="115" rx="52" ry="31" fill="#2563EB" fill-opacity="0.12"/>
    <!-- Shield -->
    <g>
      <path d="M170 80c18 0 36 7 46 21 10 14 8 33-4 50-9 14-24 27-36 34-12-7-27-20-36-34-12-17-14-36-4-50 10-14 28-21 46-21z" fill="#2563EB"/>
      <path d="M170 90c11 0 21 4 27 12 6 8 5 19-2 29-6 9-15 16-25 22-10-6-19-13-25-22-7-10-8-21-2-29 6-8 16-12 27-12z" fill="#fff"/>
      <path d="M170 101a10 10 0 100 20 10 10 0 000-20zm-3 7a3 3 0 116 0 3 3 0 01-6 0z" fill="#2563EB"/>
    </g>
  </g>
  <circle cx="240" cy="60" r="15" fill="#22C55E" fill-opacity="0.15"/>
  <rect x="72" y="50" width="32" height="12" rx="6" fill="#FBBF24" fill-opacity="0.18"/>
</svg>
